<svg width="460" height="338" viewBox="0 0 460 338" fill="none" xmlns="http://www.w3.org/2000/svg">
<path d="M414.6 326.621C435.77 318.621 454.91 301.511 459.06 279.251C462.48 260.891 455.43 242.251 446.86 225.641C438.29 209.031 427.91 192.981 423.91 174.741C416.46 140.821 422.003 112 406.503 90.5C391.003 69 374.003 54 363.503 43.9316C353.003 33.8632 309.913 -8.77967 266.503 4.61033C223.093 18.0003 143.973 -9.18022 94.0747 4.60898C44.1763 18.3982 23.5737 44.3845 10.0734 77.6033C-3.42697 110.822 -0.846776 144.207 10.0767 182.104C21.0002 220 28.0031 239.5 76.5031 267.5C125.003 295.5 140.519 335.851 159.449 335.761C201.639 335.551 282.59 337.621 321.7 336.121C351 334.971 383.93 338.201 414.6 326.621Z" fill="#FFE6D2"/>
<path d="M233.777 291.512C232.777 294.362 231.897 297.632 233.347 300.282C234.316 301.759 235.622 302.986 237.157 303.862L250.957 313.242C253.607 315.042 256.417 316.892 259.597 317.132C262.777 317.372 266.387 315.342 266.657 312.132C266.977 308.462 263.127 305.952 261.327 302.732C258.967 298.512 260.267 293.282 261.497 288.602C264.598 276.823 266.864 264.84 268.277 252.742C265.447 251.582 257.207 246.392 254.277 247.252C250.977 248.252 247.997 257.482 246.527 260.492C241.558 270.522 237.298 280.887 233.777 291.512V291.512Z" fill="#FFC6B2"/>
<path d="M260.247 212.36C256.667 222.53 252.867 232.73 247.127 241.87C246.919 242.135 246.809 242.464 246.817 242.8C246.908 243.117 247.106 243.393 247.377 243.58C253.147 248.63 259.377 253.9 266.967 254.99C267.461 255.105 267.98 255.059 268.447 254.86C268.885 254.55 269.208 254.103 269.367 253.59C274.207 242.38 275.917 230.1 275.757 217.96C275.652 211.896 275.171 205.845 274.317 199.84C274.117 198.38 274.007 191.9 272.737 191.14C270.807 190 268.687 193.98 267.847 195.23C264.367 200.44 262.307 206.44 260.247 212.36Z" fill="white"/>
<path d="M275.937 192.98C275.937 192.98 271.427 194.67 267.757 207.37C264.087 220.07 255.77 250.161 255.77 250.161C255.77 250.161 264.578 257.391 272.71 254.391C280.841 251.391 275.937 192.98 275.937 192.98Z" fill="#CBCBCB"/>
<path d="M314.378 179.901C321.758 179.671 329.228 180.031 336.328 182.031C343.428 184.031 350.178 187.811 354.838 193.541C359.998 199.881 362.258 208.171 362.778 216.321C363.298 224.471 362.218 232.641 361.398 240.781C359.477 259.834 358.969 279.003 359.878 298.131C360.098 302.711 362.718 326.621 359.498 329.891C357.498 331.951 361.498 334.011 358.648 334.691C335.348 340.291 293.488 337.541 271.428 328.201C265.818 325.821 260.188 322.511 257.428 317.091C254.428 311.221 262.528 287.951 263.498 281.421C266.438 261.494 268.558 241.461 269.858 221.321C270.428 212.411 269.768 202.811 271.598 194.061C272.928 187.711 277.018 185.981 282.918 184.421C293.204 181.745 303.756 180.229 314.378 179.901Z" fill="white"/>
<path d="M333.549 284.151C332.779 288.201 331.769 292.431 328.999 295.491C326.807 297.681 324.127 299.319 321.179 300.271C307.279 305.511 291.429 304.691 278.109 311.271C277.169 311.682 276.304 312.246 275.549 312.941C272.979 315.481 273.699 319.941 275.739 322.941C280.269 329.571 289.079 331.431 297.029 332.661C316.089 335.661 335.549 338.111 354.599 335.041C355.635 334.966 356.627 334.586 357.449 333.951C358.106 333.187 358.527 332.249 358.659 331.251C362.979 312.071 359.579 292.101 359.499 272.441C359.499 261.101 360.499 249.751 359.729 238.441C359.341 231.402 357.878 224.465 355.389 217.871C353.619 213.391 348.439 203.501 345.329 212.681C340.389 227.271 338.969 243.001 337.189 258.211C336.219 266.881 335.179 275.561 333.549 284.151Z" fill="url(#paint0_linear)"/>
<path d="M339.51 319.312H177.89C173.355 319.312 169.68 322.988 169.68 327.522C169.68 332.057 173.355 335.732 177.89 335.732H339.51C344.044 335.732 347.72 332.057 347.72 327.522C347.72 322.988 344.044 319.312 339.51 319.312Z" fill="#68E1FD"/>
<path d="M339.51 319.312H177.89C173.355 319.312 169.68 322.988 169.68 327.522C169.68 332.057 173.355 335.732 177.89 335.732H339.51C344.044 335.732 347.72 332.057 347.72 327.522C347.72 322.988 344.044 319.312 339.51 319.312Z" fill="#785299"/>
<path d="M296.548 195.442C293.238 194.912 291.378 191.582 292.858 183.562C293.018 182.672 293.228 181.812 293.468 180.952C293.468 180.792 293.558 180.632 293.598 180.472C293.958 179.232 294.368 177.992 294.768 176.762C295.882 173.81 296.471 170.686 296.508 167.532C296.418 165.232 296.238 162.842 297.088 160.722C297.905 158.923 299.185 157.373 300.798 156.232C304.368 153.482 314.798 148.312 316.798 155.142C317.688 158.062 317.038 161.462 316.998 164.452C316.798 168.736 317.585 173.01 319.298 176.942C321.478 181.322 304.678 196.742 296.548 195.442Z" fill="#FFC6B2"/>
<path d="M294.199 179.152C294.199 179.152 312.639 172.152 316.199 161.082L296.549 167.512C296.549 167.512 296.079 177.642 294.199 179.152Z" fill="#FFB3A0"/>
<path d="M344.19 203.092C342.308 224.013 345.776 245.069 354.27 264.282C354.521 264.99 354.944 265.626 355.5 266.132C356.397 266.689 357.447 266.948 358.5 266.872C366.726 267.049 374.774 264.464 381.36 259.532C383.36 258.022 385.24 256.092 385.41 253.742C385.414 252.482 385.166 251.234 384.68 250.072C379.574 235.236 373.614 220.708 366.83 206.562C364.31 201.322 360.93 195.182 354.83 192.872C347.49 190.102 344.7 197.612 344.19 203.092Z" fill="white"/>
<path d="M308.459 215.051C313.929 209.281 317.939 202.311 321.899 195.421C324.309 191.221 326.779 186.831 327.119 181.991C327.205 181.442 327.118 180.879 326.869 180.381C326.628 180.034 326.314 179.744 325.949 179.531L318.439 174.441C318.309 179.051 314.999 183.011 311.219 185.661C307.219 188.501 295.769 191.611 298.219 197.501C298.829 198.991 307.819 215.721 308.459 215.051Z" fill="#785299"/>
<path d="M308.459 215.051C313.929 209.281 317.939 202.311 321.899 195.421C324.309 191.221 326.779 186.831 327.119 181.991C327.205 181.442 327.118 180.879 326.869 180.381C326.628 180.034 326.314 179.744 325.949 179.531L318.439 174.441C318.309 179.051 314.999 183.011 311.219 185.661C307.219 188.501 295.769 191.611 298.219 197.501C298.829 198.991 307.819 215.721 308.459 215.051Z" fill="#785299"/>
<path d="M282.077 192.889C280.077 197.889 277.943 203.396 281.407 210.595C281.814 211.432 295.467 198.038 296.501 196.788C298.078 193.891 295.577 190.62 294.077 188.891C292.577 187.163 292.802 183.366 294.078 178.891C294.078 178.891 290.078 180.891 288.578 181.891C287.078 182.891 287.078 182.891 286.577 183.389L282.077 192.889Z" fill="#785299"/>
<path d="M351.188 323.071L394.988 314.701C397.578 314.201 400.278 313.701 402.328 312.001C405.138 309.741 406.128 305.781 405.718 302.191C405.308 298.601 403.718 295.271 402.138 292.011C395.918 279.131 383.298 256.011 383.218 257.361C375.558 258.981 369.218 259.061 362.638 263.271C361.505 263.883 360.548 264.775 359.858 265.861C357.228 270.861 364.418 278.161 366.858 281.961C367.794 283.176 368.418 284.6 368.678 286.111C368.731 287.179 368.532 288.244 368.098 289.221C365.728 295.041 357.288 298.431 352.098 301.421C345.313 305.524 337.705 308.078 329.818 308.901C323.698 309.421 317.448 308.631 311.468 310.001C307.801 310.875 304.364 312.527 301.391 314.846C298.418 317.165 295.979 320.097 294.238 323.441C297.798 325.701 302.428 324.391 306.528 323.361C314.125 321.477 321.978 320.846 329.778 321.491C334.838 321.921 348.788 327.781 351.188 323.071Z" fill="#FFC6B2"/>
<path d="M283.467 335.742H159.467L126.757 252.742C126.313 251.635 126.149 250.436 126.276 249.25C126.404 248.065 126.821 246.928 127.49 245.941C128.16 244.954 129.061 244.146 130.115 243.588C131.169 243.031 132.344 242.74 133.537 242.742H230.877C235.591 242.74 240.197 244.157 244.094 246.809C247.991 249.461 250.999 253.226 252.727 257.612L283.467 335.742Z" fill="#68E1FD"/>
<path d="M283.467 335.742H159.467L126.757 252.742C126.313 251.635 126.149 250.436 126.276 249.25C126.404 248.065 126.821 246.928 127.49 245.941C128.16 244.954 129.061 244.146 130.115 243.588C131.169 243.031 132.344 242.74 133.537 242.742H230.877C235.591 242.74 240.197 244.157 244.094 246.809C247.991 249.461 250.999 253.226 252.727 257.612L283.467 335.742Z" fill="#785299"/>
<path d="M277.167 335.831H159.347L128.267 257.021C127.854 255.971 127.703 254.835 127.828 253.713C127.953 252.592 128.35 251.517 128.985 250.584C129.619 249.65 130.473 248.886 131.47 248.358C132.467 247.829 133.579 247.552 134.707 247.551H227.167C231.645 247.554 236.019 248.903 239.721 251.423C243.423 253.942 246.282 257.516 247.927 261.681L277.167 335.831Z" fill="#785299"/>
<path d="M292.549 61.9326C295.549 60.1726 298.549 58.3826 301.939 57.7226C305.329 57.0626 309.939 57.4626 312.229 60.0226C309.26 60.2314 306.366 61.0569 303.734 62.4464C301.101 63.8359 298.787 65.7588 296.939 68.0926C296.767 68.3958 296.495 68.6294 296.169 68.7526C295.89 68.7819 295.609 68.7298 295.359 68.6026C293.979 68.0826 283.639 70.4426 283.039 69.1926C283.069 69.1926 291.279 62.7026 292.549 61.9326Z" fill="#68E1FD"/>
<path d="M292.549 61.9326C295.549 60.1726 298.549 58.3826 301.939 57.7226C305.329 57.0626 309.939 57.4626 312.229 60.0226C309.26 60.2314 306.366 61.0569 303.734 62.4464C301.101 63.8359 298.787 65.7588 296.939 68.0926C296.767 68.3958 296.495 68.6294 296.169 68.7526C295.89 68.7819 295.609 68.7298 295.359 68.6026C293.979 68.0826 283.639 70.4426 283.039 69.1926C283.069 69.1926 291.279 62.7026 292.549 61.9326Z" fill="url(#paint1_linear)"/>
<path d="M270.199 138.19C276.903 138.19 282.339 131.492 282.339 123.23C282.339 114.967 276.903 108.27 270.199 108.27C263.494 108.27 258.059 114.967 258.059 123.23C258.059 131.492 263.494 138.19 270.199 138.19Z" fill="#FF7B5B"/>
<path d="M272.687 138.75C278.889 138.75 283.917 132.554 283.917 124.91C283.917 117.267 278.889 111.07 272.687 111.07C266.485 111.07 261.457 117.267 261.457 124.91C261.457 132.554 266.485 138.75 272.687 138.75Z" fill="#68E1FD"/>
<path d="M272.687 138.75C278.889 138.75 283.917 132.554 283.917 124.91C283.917 117.267 278.889 111.07 272.687 111.07C266.485 111.07 261.457 117.267 261.457 124.91C261.457 132.554 266.485 138.75 272.687 138.75Z" fill="#112129"/>
<path d="M268.738 97.029L271.548 148.439C271.548 148.439 272.798 167.839 292.028 168.029C315.128 168.259 322.158 154.829 325.668 144.609C329.178 134.389 332.348 104.369 325.668 96.069C318.988 87.769 281.398 67.339 268.738 97.029Z" fill="#FFC6B2"/>
<path d="M283.349 66.1606C274.289 66.0006 263.939 70.2306 259.809 78.7806C258.818 80.7479 258.279 82.9117 258.23 85.114C258.182 87.3163 258.625 89.5016 259.529 91.5106C259.861 92.1015 260.123 92.7291 260.309 93.3806C260.399 94.1012 260.399 94.8301 260.309 95.5506C260.23 97.2877 260.581 99.0174 261.329 100.587C262.077 102.157 263.2 103.518 264.599 104.551C266.189 105.701 268.119 106.421 269.389 107.911L268.899 98.3406C268.786 97.8235 268.882 97.2826 269.167 96.8365C269.452 96.3904 269.902 96.0754 270.419 95.9606L276.509 93.1206C276.509 93.1206 278.389 94.4906 278.619 94.6006C279.63 95.031 280.721 95.2391 281.819 95.2106C284.206 95.2669 286.594 95.1332 288.959 94.8106C294.069 94.0806 298.959 92.2106 303.729 90.3506C303.575 91.8291 302.935 93.2147 301.909 94.2906L317.439 97.2906C319.714 100.418 321.547 103.844 322.889 107.471C323.963 110.305 324.668 113.266 324.989 116.281C325.405 120.379 325.021 124.519 323.859 128.471C324.915 127.665 325.84 126.7 326.599 125.611C328.003 126.586 329.557 127.325 331.199 127.801C331.541 127.928 331.911 127.959 332.269 127.891C333.029 127.681 333.189 126.781 333.269 126.061C333.889 119.611 338.689 114.161 340.889 108.001C343.559 100.541 342.209 92.1506 338.129 85.2406C336.92 83.0511 335.277 81.1318 333.299 79.6006C326.149 74.3606 315.989 76.7606 307.829 74.0206C303.949 72.7206 300.829 70.2506 297.119 68.6206C292.999 66.8706 287.839 66.2406 283.349 66.1606Z" fill="#3F3D56"/>
<path d="M283.349 66.1606C274.289 66.0006 263.939 70.2306 259.809 78.7806C258.818 80.7479 258.279 82.9117 258.23 85.114C258.182 87.3163 258.625 89.5016 259.529 91.5106C259.861 92.1015 260.123 92.7291 260.309 93.3806C260.399 94.1012 260.399 94.8301 260.309 95.5506C260.23 97.2877 260.581 99.0174 261.329 100.587C262.077 102.157 263.2 103.518 264.599 104.551C266.189 105.701 268.119 106.421 269.389 107.911L268.899 98.3406C268.786 97.8235 268.882 97.2826 269.167 96.8365C269.452 96.3904 269.902 96.0754 270.419 95.9606L276.509 93.1206C276.509 93.1206 278.389 94.4906 278.619 94.6006C279.63 95.031 280.721 95.2391 281.819 95.2106C284.206 95.2669 286.594 95.1332 288.959 94.8106C294.069 94.0806 298.959 92.2106 303.729 90.3506C303.575 91.8291 302.935 93.2147 301.909 94.2906L317.439 97.2906C319.714 100.418 321.547 103.844 322.889 107.471C323.963 110.305 324.668 113.266 324.989 116.281C325.405 120.379 325.021 124.519 323.859 128.471C324.915 127.665 325.84 126.7 326.599 125.611C328.003 126.586 329.557 127.325 331.199 127.801C331.541 127.928 331.911 127.959 332.269 127.891C333.029 127.681 333.189 126.781 333.269 126.061C333.889 119.611 338.689 114.161 340.889 108.001C343.559 100.541 342.209 92.1506 338.129 85.2406C336.92 83.0511 335.277 81.1318 333.299 79.6006C326.149 74.3606 315.989 76.7606 307.829 74.0206C303.949 72.7206 300.829 70.2506 297.119 68.6206C292.999 66.8706 287.839 66.2406 283.349 66.1606Z" fill="#22343D"/>
<path d="M337.069 139.882C343.702 139.882 349.079 133.251 349.079 125.072C349.079 116.892 343.702 110.262 337.069 110.262C330.436 110.262 325.059 116.892 325.059 125.072C325.059 133.251 330.436 139.882 337.069 139.882Z" fill="#68E1FD"/>
<path d="M337.069 139.882C343.702 139.882 349.079 133.251 349.079 125.072C349.079 116.892 343.702 110.262 337.069 110.262C330.436 110.262 325.059 116.892 325.059 125.072C325.059 133.251 330.436 139.882 337.069 139.882Z" fill="#FF7B5B"/>
<path d="M341.666 139.882C348.299 139.882 353.676 133.251 353.676 125.072C353.676 116.892 348.299 110.262 341.666 110.262C335.033 110.262 329.656 116.892 329.656 125.072C329.656 133.251 335.033 139.882 341.666 139.882Z" fill="#FF7B5B"/>
<path d="M341.757 111.441L335.757 112.081L334.327 112.231L328.327 82.7007C325.207 71.0207 317.577 62.0407 308.007 58.5607C306.525 58.0439 304.949 57.8562 303.387 58.0107L299.297 58.3807L301.297 57.8507L305.297 56.7907C306.547 56.4459 307.841 56.2875 309.137 56.3207C319.817 56.7107 329.947 65.3207 333.617 77.6607L341.757 111.441Z" fill="#68E1FD"/>
<path d="M341.757 111.441L335.757 112.081L334.327 112.231L328.327 82.7007C325.207 71.0207 317.577 62.0407 308.007 58.5607C306.525 58.0439 304.949 57.8562 303.387 58.0107L299.297 58.3807L301.297 57.8507L305.297 56.7907C306.547 56.4459 307.841 56.2875 309.137 56.3207C319.817 56.7107 329.947 65.3207 333.617 77.6607L341.757 111.441Z" fill="#DF694D"/>
<path d="M341.757 111.441L335.757 112.081L329.757 82.4807C326.587 70.6807 318.887 61.6307 309.227 58.1207C307.732 57.585 306.136 57.3936 304.557 57.5607L301.297 57.8507L305.297 56.7907C306.547 56.4459 307.841 56.2875 309.137 56.3207C319.817 56.7107 329.947 65.3207 333.617 77.6607L341.757 111.441Z" fill="#FF7B5B"/>
<path d="M215.848 22.0508H69.2181C60.5804 22.0508 53.5781 29.053 53.5781 37.6908V209.871C53.5781 218.509 60.5804 225.511 69.2181 225.511H215.848C224.486 225.511 231.488 218.509 231.488 209.871V37.6908C231.488 29.053 224.486 22.0508 215.848 22.0508Z" fill="white"/>
<path d="M107.229 206.053C121.931 206.053 133.849 194.134 133.849 179.432C133.849 164.731 121.931 152.812 107.229 152.812C92.5276 152.812 80.6094 164.731 80.6094 179.432C80.6094 194.134 92.5276 206.053 107.229 206.053Z" fill="#FF7B5B"/>
<path d="M186.288 41.8906H72.5781V48.2906H186.288V41.8906Z" fill="#785299"/>
<path d="M186.288 124.891H72.5781V131.291H186.288V124.891Z" fill="#FF7B5B"/>
<path d="M153.408 113.891H72.5781V120.291H153.408V113.891Z" fill="#CBCBCB"/>
<path d="M218.688 113.891H164.578V120.291H218.688V113.891Z" fill="#785299"/>
<path d="M218.778 69.8906H135.578V75.5806H218.778V69.8906Z" fill="#FF7B5B"/>
<path d="M218.578 80.8906H119.578V86.8906H218.578V80.8906Z" fill="#FF7B5B"/>
<path d="M127.298 69.8906H72.5781V75.5806H127.298V69.8906Z" fill="#CBCBCB"/>
<path d="M218.848 91.8906H98.5781V97.5806H218.848V91.8906Z" fill="#CBCBCB"/>
<path d="M90.2381 91.8906H72.5781V97.5806H90.2381V91.8906Z" fill="#785299"/>
<path d="M218.958 102.891H139.578V108.581H218.958V102.891Z" fill="#785299"/>
<path d="M133.578 102.891H72.5781V108.891H133.578V102.891Z" fill="#FF7B5B"/>
<path d="M107.768 80.8906H72.5781V86.5806H107.768V80.8906Z" fill="#CBCBCB"/>
<path d="M113.127 161.93C111.567 163.84 111.307 166.51 111.597 168.93C111.687 169.369 111.687 169.822 111.597 170.26C111.464 170.63 111.26 170.969 110.997 171.26C106.759 176.527 102.013 181.364 96.8267 185.7C96.6808 185.841 96.5071 185.95 96.3167 186.02C95.9772 186.091 95.6238 186.041 95.3167 185.88C93.8167 185.29 92.2067 184.65 90.6367 185.03C89.9252 185.243 89.2743 185.621 88.7372 186.134C88.2 186.647 87.7921 187.279 87.5467 187.98C87.0616 189.393 86.9819 190.914 87.3167 192.37C89.0234 190.95 90.8 189.617 92.6467 188.37L95.2767 190.98C95.4132 191.084 95.5252 191.217 95.6047 191.369C95.6842 191.521 95.7292 191.689 95.7367 191.86C95.6855 192.066 95.5781 192.252 95.4267 192.4L91.5467 196.98C92.8229 197.491 94.2148 197.642 95.5708 197.416C96.9268 197.19 98.1948 196.597 99.2367 195.7C101.237 193.8 101.537 190.25 99.5767 188.34L114.467 171.65C115.47 172.393 116.69 172.785 117.939 172.767C119.187 172.749 120.395 172.321 121.377 171.55C122.33 170.744 123.067 169.713 123.521 168.55C123.975 167.387 124.132 166.129 123.977 164.89C122.123 166.001 120.405 167.323 118.857 168.83L115.857 165.09C116.917 164.09 121.027 161.33 118.357 160.25C116.597 159.54 114.267 160.54 113.127 161.93Z" fill="white"/>
<path d="M199.318 188.91L200.748 184.36C200.748 184.36 195.098 179.9 194.928 180.18L194.698 176.89L199.868 171.39L197.488 167.26C197.488 167.26 190.488 168.4 190.488 168.72C189.138 167.45 187.683 166.296 186.138 165.27L185.918 157.77L181.318 156.52C181.318 156.52 177.108 162.36 177.388 162.52C177.388 162.52 174.148 163.2 172.598 163.69L167.358 159.23L163.358 161.81C163.358 161.81 164.548 167.38 165.018 168.55C163.898 169.78 162.498 171.17 162.498 171.17L155.038 172.37L154.398 177.09C154.398 177.09 159.648 179.93 160.668 180.22C160.69 181.748 160.925 183.266 161.368 184.73L157.298 190.99L160.368 194.63C160.368 194.63 164.438 193.2 166.208 192.42C167.858 193.92 170.208 195.7 170.208 195.7L172.088 203.02L176.848 203.22C176.848 203.22 179.138 197.89 179.378 196.72C180.909 196.549 182.454 196.529 183.988 196.66L190.678 200.17L194.028 196.77C193.062 194.608 191.984 192.499 190.798 190.45C191.223 189.933 191.608 189.385 191.948 188.81L199.318 188.91ZM177.118 189.08C175.247 189.082 173.417 188.528 171.86 187.49C170.303 186.452 169.089 184.975 168.371 183.247C167.654 181.518 167.465 179.616 167.829 177.78C168.193 175.944 169.093 174.258 170.416 172.934C171.738 171.61 173.424 170.708 175.259 170.342C177.095 169.976 178.997 170.163 180.726 170.879C182.455 171.594 183.934 172.807 184.973 174.363C186.013 175.919 186.568 177.748 186.568 179.62C186.566 182.126 185.57 184.529 183.798 186.302C182.027 188.076 179.625 189.074 177.118 189.08V189.08Z" fill="#FF7B5B"/>
<path d="M262.277 94.4399C264.047 90.9399 267.887 88.8599 271.757 88.2299C275.627 87.5999 279.587 88.1799 283.457 88.7699C279.707 91.7699 269.237 96.2399 269.037 97.0399C268.896 98.4557 268.88 99.8811 268.987 101.3C269.127 103.36 269.197 105.52 269.187 107.58C268.221 106.634 267.139 105.814 265.967 105.14C264.96 104.751 264.041 104.163 263.267 103.41C262.256 102.169 261.624 100.662 261.449 99.071C261.273 97.4797 261.561 95.8715 262.277 94.4399V94.4399Z" fill="url(#paint2_linear)"/>
<path d="M313.21 160.97C308.692 160.878 304.212 160.131 299.91 158.75C299.401 158.597 298.973 158.249 298.72 157.781C298.468 157.313 298.412 156.764 298.565 156.255C298.717 155.745 299.066 155.318 299.534 155.065C300.002 154.813 300.551 154.757 301.06 154.91C311.36 158.01 319.11 157.6 324.06 153.69C330.8 148.4 330.36 138.32 330.36 138.22C330.333 137.689 330.518 137.17 330.875 136.776C331.231 136.382 331.729 136.146 332.26 136.12C332.79 136.093 333.309 136.278 333.703 136.635C334.097 136.991 334.333 137.489 334.36 138.02C334.36 138.51 334.89 150.29 326.53 156.85C323.05 159.59 318.61 160.963 313.21 160.97Z" fill="#68E1FD"/>
<path d="M313.21 160.97C308.692 160.878 304.212 160.131 299.91 158.75C299.401 158.597 298.973 158.249 298.72 157.781C298.468 157.313 298.412 156.764 298.565 156.255C298.717 155.745 299.066 155.318 299.534 155.065C300.002 154.813 300.551 154.757 301.06 154.91C311.36 158.01 319.11 157.6 324.06 153.69C330.8 148.4 330.36 138.32 330.36 138.22C330.333 137.689 330.518 137.17 330.875 136.776C331.231 136.382 331.729 136.146 332.26 136.12C332.79 136.093 333.309 136.278 333.703 136.635C334.097 136.991 334.333 137.489 334.36 138.02C334.36 138.51 334.89 150.29 326.53 156.85C323.05 159.59 318.61 160.963 313.21 160.97Z" fill="#FF7B5B"/>
<path d="M300.947 151.53C302.095 152.107 302.994 153.08 303.477 154.27C303.917 155.97 302.597 157.6 301.237 158.71C300.068 159.752 298.631 160.445 297.087 160.71C294.827 160.98 292.667 159.76 290.787 158.47C289.738 157.83 288.844 156.966 288.167 155.94C286.427 152.88 288.677 148.94 291.627 147.64C294.897 146.23 298.377 149.84 300.947 151.53Z" fill="#68E1FD"/>
<path d="M300.947 151.53C302.095 152.107 302.994 153.08 303.477 154.27C303.917 155.97 302.597 157.6 301.237 158.71C300.068 159.752 298.631 160.445 297.087 160.71C294.827 160.98 292.667 159.76 290.787 158.47C289.738 157.83 288.844 156.966 288.167 155.94C286.427 152.88 288.677 148.94 291.627 147.64C294.897 146.23 298.377 149.84 300.947 151.53Z" fill="#112129"/>
<defs>
<linearGradient id="paint0_linear" x1="38675.8" y1="56801.1" x2="13007.5" y2="40636.9" gradientUnits="userSpaceOnUse">
<stop offset="0.01"/>
<stop offset="1" stop-opacity="0"/>
</linearGradient>
<linearGradient id="paint1_linear" x1="7492.67" y1="849.689" x2="7503.17" y2="1113.98" gradientUnits="userSpaceOnUse">
<stop offset="0.01"/>
<stop offset="1" stop-opacity="0"/>
</linearGradient>
<linearGradient id="paint2_linear" x1="5150.97" y1="2509.02" x2="5187.14" y2="1928.58" gradientUnits="userSpaceOnUse">
<stop offset="0.01"/>
<stop offset="1" stop-opacity="0"/>
</linearGradient>
</defs>
</svg>
